# xmcd
#
# Track frame offsets:
#	150
#	14217
#	31667
#	43805
#	62227
#	71617
#	85952
#	98472
#	123430
#	146335
#
# Disc length: 2166 seconds
#
# Revision: 1
# Processed by: cddbd v1.5.2PL0 Copyright (c) Steve Scherf et al.
# Submitted via: EasyCDDAExtractor 7.0.3.1
#
DISCID=8508740a
DTITLE=Various Artist - 18 Wheels Rollin' Trucking Songs
DYEAR=1900
DGENRE=Country
TTITLE0=Merle Haggard and The Strangers - White Line Fever
TTITLE1=Dan Seals - Big Wheels In the Moonlight
TTITLE2=New Grass Revival - Callin' Baton Rouge
TTITLE3=Eddie Rabbitt - Runnin' With the Wind
TTITLE4=Green River Boys and Glen Campbell - Truck Drivin' Man
TTITLE5=Red Simpson - I'm A Truck
TTITLE6=Dick Curless - Truck Stop
TTITLE7=Justin Wilson - Truck Driver's License
TTITLE8=Pirates of the Mississippi - Honky Tonk Highway
TTITLE9=Asleep At the Wheel - The Wheel Keeps On Rollin'
EXTD=
EXTT0=
EXTT1=
EXTT2=
EXTT3=
EXTT4=
EXTT5=
EXTT6=
EXTT7=
EXTT8=
EXTT9=
PLAYORDER=
